HIERARCHY
ROOT hip
{
	OFFSET 0.000000 0.000000 0.000000
	CHANNELS 6 Xposition Yposition Zposition Zrotation Yrotation Xrotation 
	JOINT lhipjoint
	{
		OFFSET 0.000000 0.000000 0.000000
		CHANNELS 3 Zrotation Yrotation Xrotation
		JOINT lfemur
		{
			OFFSET 1.363060 -1.794630 0.839290
			CHANNELS 3 Zrotation Yrotation Xrotation
			JOINT ltibia
			{
				OFFSET 2.448110 -6.726130 0.000000
				CHANNELS 3 Zrotation Yrotation Xrotation
				JOINT lfoot
				{
					OFFSET 2.562200 -7.039590 0.000000
					CHANNELS 3 Zrotation Yrotation Xrotation
					JOINT ltoes
					{
						OFFSET 0.157640 -0.433110 2.322550
						CHANNELS 3 Zrotation Yrotation Xrotation
						End Site
						{
							OFFSET 0.000000 0.000000 0.000000
						}
					}
				}
			}
		}
	}
	JOINT rhipjoint
	{
		OFFSET 0.000000 0.000000 0.000000
		CHANNELS 3 Zrotation Yrotation Xrotation
		JOINT rfemur
		{
			OFFSET -1.305520 -1.794630 0.839290
			CHANNELS 3 Zrotation Yrotation Xrotation
			JOINT rtibia
			{
				OFFSET -2.542530 -6.985550 0.000000
				CHANNELS 3 Zrotation Yrotation Xrotation
				JOINT rfoot
				{
					OFFSET -2.568260 -7.056230 0.000000
					CHANNELS 3 Zrotation Yrotation Xrotation
					JOINT rtoes
					{
						OFFSET -0.164730 -0.452590 2.363150
						CHANNELS 3 Zrotation Yrotation Xrotation
						End Site
						{
							OFFSET 0.000000 0.000000 0.000000
						}
					}
				}
			}
		}
	}
	JOINT lowerback
	{
		OFFSET 0.000000 0.000000 0.000000
		CHANNELS 3 Zrotation Yrotation Xrotation
		JOINT upperback
		{
			OFFSET 0.028270 2.035590 -0.193380
			CHANNELS 3 Zrotation Yrotation Xrotation
			JOINT thorax
			{
				OFFSET 0.056720 2.048850 -0.042750
				CHANNELS 3 Zrotation Yrotation Xrotation
				JOINT lowerneck
				{
					OFFSET 0.000000 0.000000 0.000000
					CHANNELS 3 Zrotation Yrotation Xrotation
					JOINT upperneck
					{
						OFFSET -0.054170 1.746240 0.172020
						CHANNELS 3 Zrotation Yrotation Xrotation
						JOINT head
						{
							OFFSET 0.104070 1.761360 -0.123970
							CHANNELS 3 Zrotation Yrotation Xrotation
							End Site
							{
								OFFSET 0.000000 0.000000 0.000000
							}
						}
					}
				}
				JOINT lclavicle
				{
					OFFSET 0.000000 0.000000 0.000000
					CHANNELS 3 Zrotation Yrotation Xrotation
					JOINT lhumerus
					{
						OFFSET 3.362410 1.200890 -0.311210
						CHANNELS 3 Zrotation Yrotation Xrotation
						JOINT lradius
						{
							OFFSET 4.983000 -0.000000 -0.000000
							CHANNELS 3 Zrotation Yrotation Xrotation
							JOINT lwrist
							{
								OFFSET 3.483560 -0.000000 -0.000000
								CHANNELS 3 Zrotation Yrotation Xrotation
								JOINT lhand
								{
									OFFSET 0.000000 0.000000 0.000000
									CHANNELS 3 Zrotation Yrotation Xrotation
									JOINT lfingers
									{
										OFFSET 0.715260 -0.000000 -0.000000
										CHANNELS 3 Zrotation Yrotation Xrotation
										End Site
										{
											OFFSET 0.000000 0.000000 0.000000
										}
									}
								}
								JOINT lthumb
								{
									OFFSET 0.000000 0.000000 0.000000
									CHANNELS 3 Zrotation Yrotation Xrotation
									End Site
									{
										OFFSET 0.000000 0.000000 0.000000
									}
								}
							}
						}
					}
				}
				JOINT rclavicle
				{
					OFFSET 0.000000 0.000000 0.000000
					CHANNELS 3 Zrotation Yrotation Xrotation
					JOINT rhumerus
					{
						OFFSET -3.136600 1.374050 -0.404650
						CHANNELS 3 Zrotation Yrotation Xrotation
						JOINT rradius
						{
							OFFSET -5.241900 -0.000000 -0.000000
							CHANNELS 3 Zrotation Yrotation Xrotation
							JOINT rwrist
							{
								OFFSET -3.444170 -0.000000 -0.000000
								CHANNELS 3 Zrotation Yrotation Xrotation
								JOINT rhand
								{
									OFFSET 0.000000 0.000000 0.000000
									CHANNELS 3 Zrotation Yrotation Xrotation
									JOINT rfingers
									{
										OFFSET -0.622530 -0.000000 -0.000000
										CHANNELS 3 Zrotation Yrotation Xrotation
										End Site
										{
											OFFSET 0.000000 0.000000 0.000000
										}
									}
								}
								JOINT rthumb
								{
									OFFSET 0.000000 0.000000 0.000000
									CHANNELS 3 Zrotation Yrotation Xrotation
									End Site
									{
										OFFSET 0.000000 0.000000 0.000000
									}
								}
							}
						}
					}
				}
			}
		}
	}
}
MOTION
Frames: 8
Frame Time: 0.008333
-6.968374 16.744575 -1.766929 105.514112 -88.412993 -109.969185 -4.359097 -2.288698 -0.512855 -15.930884 0.432059 -24.869616 4.654274 11.223418 34.194219 0.101742 -1.245184 0.694462 0.053600 -1.494600 -4.110700 5.356096 8.745694 -4.858287 5.555209 -11.679656 24.838020 -1.880065 -13.163457 27.647301 -2.023945 10.144747 18.326019 -0.000700 -0.166300 0.456800 -2.495186 4.215692 6.996596 -0.687795 5.671902 -2.484026 -8.224049 2.282977 12.302109 -1.961158 -3.236741 -9.586534 4.804256 -4.888234 20.986577 -0.100300 -1.782500 5.003500 -4.737420 -3.185643 3.352070 -78.354937 -5.440988 1.464433 3.527476 -13.704194 -1.008445 0.358757 0.415361 47.684401 10.624202 -6.593865 -1.345300 -7.125000 0.000000 0.000000 -11.747700 22.747300 6.423500 5.115492 2.515731 4.168670 80.715241 3.985567 16.917291 -9.309438 30.717824 -2.776590 -0.412660 -1.987546 3.819097 -13.269000 9.667727 -2.691700 7.125000 0.000000 0.000000 9.887900 -18.041900 6.436000 
-7.111251 16.753354 -1.736025 106.596229 -88.219768 -111.201292 -4.319883 -2.362163 -0.552617 -16.267213 0.581836 -24.227050 4.688555 11.337299 34.454622 0.105152 -1.347105 0.189246 0.056700 -1.535900 -4.224700 5.386807 8.727983 -4.851527 5.117261 -11.239730 24.063375 -2.188522 -13.824492 29.758489 -2.272949 9.016316 20.128337 -0.000400 -0.129100 0.354700 -2.718207 4.367789 7.190983 -0.731169 5.855818 -2.432567 -8.266341 2.359904 12.401695 -2.209520 -3.223794 -9.564019 5.020462 -4.921057 21.027229 0.042300 -1.805400 5.012800 -4.778029 -3.215169 3.394920 -77.930794 -5.747581 3.835023 4.120339 -14.595017 -1.116640 0.351975 0.467665 44.825189 10.881723 -6.499522 -1.369100 -7.125000 0.000000 0.000000 -11.554800 22.798600 6.299900 5.052307 2.469318 4.152968 80.971953 3.862587 16.468058 -8.660716 30.138314 -2.625786 -0.406802 -1.948319 3.981250 -12.892918 9.436287 -2.552700 7.125000 0.000000 0.000000 10.151700 -18.341000 6.545100 
-7.250008 16.763476 -1.706374 107.551477 -88.089447 -112.304821 -4.284549 -2.439098 -0.595428 -16.528002 0.762014 -23.565957 4.704834 11.430868 34.629127 0.110382 -1.489110 -0.266142 0.050400 -1.448400 -3.983600 5.402990 8.694656 -4.846092 4.785704 -10.794005 23.226865 -2.534973 -14.464813 31.870793 -2.524415 7.796805 21.841192 -0.000800 -0.181100 0.497600 -2.874724 4.504135 7.407117 -0.766092 6.015303 -2.374969 -8.314553 2.430043 12.530126 -2.417933 -3.231605 -9.626838 5.178024 -4.961728 21.072324 0.154200 -1.831400 5.047200 -4.816467 -3.230202 3.431107 -77.555748 -6.092804 6.019697 4.800111 -15.548559 -1.244957 0.334466 0.523498 42.079523 11.097616 -6.243603 -1.355900 -7.125000 0.000000 0.000000 -11.396800 23.014300 6.152700 4.999281 2.425683 4.139884 81.171637 3.775505 16.169672 -8.057552 29.604808 -2.493095 -0.410016 -1.908580 3.895868 -12.609661 9.347093 -2.463400 7.125000 0.000000 0.000000 10.360000 -18.490500 6.649000 
-7.386346 16.777719 -1.676634 107.606125 -87.939717 -112.498000 -4.262289 -2.503317 -0.630705 -16.820873 0.956971 -22.892008 4.700201 11.505000 34.705081 0.117254 -1.626620 -0.678260 0.055200 -1.516100 -4.170100 5.405809 8.673580 -4.841592 4.403238 -10.406431 22.334936 -2.917052 -15.086369 33.985031 -2.743246 6.737435 23.351720 -0.000000 0.003700 -0.010100 -3.057112 4.646334 7.642837 -0.801290 6.178050 -2.319616 -8.374126 2.502460 12.635975 -2.551163 -3.272168 -9.716876 5.344050 -5.054437 21.485619 0.217000 -1.860700 4.689100 -4.852163 -3.232621 3.463305 -77.138697 -6.398042 8.250795 5.531791 -16.544605 -1.388217 0.309183 0.576687 39.369243 11.232673 -5.921647 -1.317400 -7.125000 0.000000 0.000000 -11.301000 23.302300 6.022600 4.948721 2.401019 4.129671 81.400302 3.702084 15.794559 -7.468761 29.081212 -2.369733 -0.418508 -1.864679 3.810123 -12.334210 9.363945 -2.397500 7.125000 0.000000 0.000000 10.563600 -18.536200 6.773300 
-7.518921 16.793575 -1.648148 107.085116 -87.810598 -112.110591 -4.248245 -2.562109 -0.666433 -17.083830 1.111968 -22.158801 4.674482 11.559269 34.682926 0.125440 -1.759858 -1.117824 0.057000 -1.540000 -4.236000 5.395552 8.650114 -4.840420 4.077738 -10.015029 21.424003 -3.338187 -15.686839 36.104593 -2.933969 5.654969 24.656495 0.000000 -0.000600 0.001600 -3.226983 4.762684 7.910088 -0.828802 6.299839 -2.256650 -8.421365 2.560253 12.768296 -2.692914 -3.297526 -9.812841 5.473924 -5.111502 21.494212 0.292000 -1.891000 4.712300 -4.890530 -3.232344 3.494209 -76.757511 -6.736961 10.180372 6.297909 -17.540021 -1.550248 0.284338 0.634022 36.932657 11.530165 -5.592674 -1.295900 -7.125000 0.000000 0.000000 -11.084300 23.587100 5.828700 4.909706 2.366580 4.120216 81.570911 3.670507 15.569585 -6.975102 28.638329 -2.259996 -0.409086 -1.833090 3.722760 -11.944745 9.174489 -2.272900 7.125000 0.000000 0.000000 10.841000 -18.783400 6.897100 
-7.648272 16.811670 -1.621096 106.351143 -87.699058 -111.474343 -4.238822 -2.615191 -0.697831 -17.329133 1.304004 -21.476104 4.635308 11.592170 34.588410 0.134403 -1.937168 -1.505093 0.065000 -1.645300 -4.526400 5.377188 8.620043 -4.836330 3.764545 -9.658629 20.421977 -3.796984 -16.265523 38.226777 -3.079599 4.640467 25.702701 -0.001200 -0.223500 0.614200 -3.402185 4.886333 8.172609 -0.854413 6.430784 -2.200791 -8.458957 2.621750 12.867342 -2.794175 -3.342720 -9.887198 5.594113 -5.196708 21.493872 0.352100 -1.933400 4.729300 -4.922883 -3.233615 3.522842 -76.369282 -7.067124 11.923158 7.085737 -18.533951 -1.729057 0.261325 0.691835 34.729398 11.923128 -5.307880 -1.291800 -7.125000 0.000000 0.000000 -10.794200 23.821600 5.611200 4.875059 2.342357 4.109199 81.771199 3.619190 15.310104 -6.550975 28.252107 -2.162370 -0.386280 -1.813965 3.722323 -11.484220 8.816028 -2.110200 7.125000 0.000000 0.000000 11.164100 -19.189500 7.007800 
-7.774667 16.829943 -1.594939 104.964058 -87.623873 -110.187846 -4.239006 -2.662481 -0.729571 -17.529040 1.440812 -20.744522 4.581733 11.613294 34.429587 0.143809 -2.064519 -1.880411 0.062700 -1.615600 -4.444500 5.342540 8.588403 -4.833458 3.491863 -9.380167 19.378832 -4.294035 -16.822809 40.351194 -3.146363 3.796664 26.320411 -0.002200 -0.301300 0.827800 -3.551278 4.987680 8.469799 -0.870680 6.526032 -2.139077 -8.484785 2.670207 12.980956 -2.917969 -3.389824 -10.009275 5.706360 -5.277171 21.492670 0.414700 -1.974600 4.758700 -4.955587 -3.227613 3.548472 -76.011994 -7.399127 13.470692 7.939913 -19.579346 -1.937193 0.239060 0.751533 32.536819 12.379910 -5.098077 -1.308400 -7.125000 0.000000 0.000000 -10.452300 23.974600 5.390000 4.844940 2.316333 4.100434 81.935524 3.617538 15.119112 -6.156878 27.893587 -2.071159 -0.363709 -1.792326 3.567061 -10.987099 8.534484 -1.959800 7.125000 0.000000 0.000000 11.516000 -19.521500 7.150600 
-7.897568 16.849292 -1.569768 102.689159 -87.539259 -107.980372 -4.254453 -2.695108 -0.753695 -17.739863 1.554680 -20.063897 4.521238 11.624431 34.232344 0.153648 -2.208352 -2.198792 0.072300 -1.735100 -4.774200 5.291644 8.559923 -4.831299 3.205740 -9.165504 18.254973 -4.828677 -17.353383 42.473696 -3.110149 3.157990 26.382043 -0.000200 0.090000 -0.247300 -3.727932 5.075649 8.762724 -0.882459 6.601669 -2.079586 -8.480206 2.708835 13.085693 -3.052821 -3.443842 -10.139149 5.800487 -5.359803 21.480211 0.472900 -2.018300 4.788000 -4.988612 -3.219006 3.571393 -75.670548 -7.737149 14.922273 8.821141 -20.636056 -2.169092 0.221570 0.817903 30.379871 13.034923 -4.999873 -1.371700 -7.125000 0.000000 0.000000 -9.958100 23.998700 5.121800 4.825606 2.295095 4.092478 82.033951 3.615866 15.102179 -5.831681 27.596232 -1.989561 -0.333291 -1.776753 3.182198 -10.434125 8.207146 -1.797700 7.125000 0.000000 0.000000 11.910800 -19.893900 7.304900 
